# xmcd CD database file
#
# Track frame offsets:
#	150
#	15783
#	36458
#	53108
#	73883
#	88533
#	103433
#	120483
#	134620
#	149445
#	164333
#	185320
#	199770
#	217504
#	232545
#	250470
#
# Disc length: 3569 seconds
#
# Revision: 6
# Processed by: cddbd v1.5.2PL0 Copyright (c) Steve Scherf et al.
# Submitted via: CDex 1.70beta2
#
DISCID=dd0def10
DTITLE=Various Artist - Nashville Chicks [CD1)
DYEAR=2005
DGENRE=Country
TTITLE0=Jamie O'Neal - Trying To Find Atlantis
TTITLE1=LeAnn Rimes - Commitment
TTITLE2=Mary Chapin Carpenter - Shut Up And Kiss Me
TTITLE3=Katrina Elam - No End in Sight
TTITLE4=Julie Roberts - You Ain't Down Home
TTITLE5=Cyndi Thomson - My World
TTITLE6=Siobhan Maher Kennedy - Kiss On The Lips
TTITLE7=Terri Clark - Better Things To Do
TTITLE8=Jo Dee Messina - My Give A Damn's Is Busted
TTITLE9=Lorrie Morgan - I Didn't Know My Own Strength
TTITLE10=Carolyn Dawn Johnson - I Don't Want You To Go
TTITLE11=Chely Wright - C'est La Vie (You Never Can Tell)
TTITLE12=Shannon Curfman - I Don't Make Promises
TTITLE13=Jessica Andrews - Karma
TTITLE14=Sara Evans - Rockin' Horse
TTITLE15=Kathy Mattea - A Few Good Things Remain
EXTD=YEAR: 2005
EXTT0=
EXTT1=
EXTT2=
EXTT3=
EXTT4=
EXTT5=
EXTT6=
EXTT7=
EXTT8=
EXTT9=
EXTT10=
EXTT11=
EXTT12=
EXTT13=
EXTT14=
EXTT15=
PLAYORDER=
